<svg xmlns="http://www.w3.org/2000/svg" width="286" height="246" viewBox="0 0 286 246">
  <defs>
    <linearGradient id="desk" x1="0" y1="0" x2="1" y2="1">
      <stop offset="0" stop-color="#4d3f35" stop-opacity="0.92"/>
      <stop offset="1" stop-color="#2e2927" stop-opacity="0.9"/>
    </linearGradient>
    <linearGradient id="keyboard" x1="0" y1="0" x2="0" y2="1">
      <stop offset="0" stop-color="#3c4655"/>
      <stop offset="1" stop-color="#202733"/>
    </linearGradient>
    <linearGradient id="mouse" x1="0" y1="0" x2="0" y2="1">
      <stop offset="0" stop-color="#f4f8fb"/>
      <stop offset="1" stop-color="#c9d4df"/>
    </linearGradient>
  </defs>
  <g>
    <path d="M97 165c32 5 76 6 135 1 20-2 41 8 45 22l4 16c4 16-8 30-26 30H108c-19 0-33-13-31-29l2-18c2-13 9-20 18-22z" fill="url(#desk)" opacity="0.48"/>
    <rect x="101" y="173" width="162" height="70" rx="14" fill="#211e1e" opacity="0.3"/>
    <rect x="104" y="176" width="154" height="64" rx="8" fill="url(#keyboard)"/>
    <g fill="#eef4f7" opacity="0.9">
      <rect x="111" y="181" width="10" height="8" rx="2"/><rect x="124" y="181" width="10" height="8" rx="2"/><rect x="137" y="181" width="10" height="8" rx="2"/><rect x="150" y="181" width="10" height="8" rx="2"/><rect x="163" y="181" width="10" height="8" rx="2"/><rect x="176" y="181" width="10" height="8" rx="2"/><rect x="189" y="181" width="10" height="8" rx="2"/><rect x="202" y="181" width="10" height="8" rx="2"/><rect x="215" y="181" width="10" height="8" rx="2"/><rect x="228" y="181" width="10" height="8" rx="2"/>
      <rect x="117" y="192" width="10" height="8" rx="2"/><rect x="130" y="192" width="10" height="8" rx="2"/><rect x="143" y="192" width="10" height="8" rx="2"/><rect x="156" y="192" width="10" height="8" rx="2"/><rect x="169" y="192" width="10" height="8" rx="2"/><rect x="182" y="192" width="10" height="8" rx="2"/><rect x="195" y="192" width="10" height="8" rx="2"/><rect x="208" y="192" width="10" height="8" rx="2"/><rect x="221" y="192" width="10" height="8" rx="2"/><rect x="234" y="192" width="10" height="8" rx="2"/>
      <rect x="122" y="203" width="10" height="8" rx="2"/><rect x="135" y="203" width="10" height="8" rx="2"/><rect x="148" y="203" width="10" height="8" rx="2"/><rect x="161" y="203" width="10" height="8" rx="2"/><rect x="174" y="203" width="10" height="8" rx="2"/><rect x="187" y="203" width="10" height="8" rx="2"/><rect x="200" y="203" width="10" height="8" rx="2"/><rect x="213" y="203" width="10" height="8" rx="2"/><rect x="226" y="203" width="10" height="8" rx="2"/><rect x="239" y="203" width="12" height="8" rx="2"/>
      <rect x="111" y="214" width="20" height="8" rx="2"/><rect x="134" y="214" width="10" height="8" rx="2"/><rect x="147" y="214" width="10" height="8" rx="2"/><rect x="160" y="214" width="10" height="8" rx="2"/><rect x="173" y="214" width="10" height="8" rx="2"/><rect x="186" y="214" width="10" height="8" rx="2"/><rect x="199" y="214" width="10" height="8" rx="2"/><rect x="212" y="214" width="10" height="8" rx="2"/><rect x="225" y="214" width="26" height="8" rx="2"/>
      <rect x="111" y="225" width="18" height="9" rx="2"/><rect x="132" y="225" width="16" height="9" rx="2"/><rect x="151" y="225" width="46" height="9" rx="2"/><rect x="201" y="225" width="11" height="9" rx="2"/><rect x="214" y="225" width="11" height="9" rx="2"/><rect x="227" y="225" width="11" height="9" rx="2"/><rect x="240" y="225" width="11" height="9" rx="2"/>
    </g>
    <g>
      <rect x="264" y="190" width="20" height="30" rx="10" fill="url(#mouse)"/>
      <path d="M274 194v9" stroke="#65717f" stroke-width="1.3" stroke-linecap="round" opacity="0.72"/>
      <path d="M266 204h16" stroke="#65717f" stroke-width="1" stroke-linecap="round" opacity="0.42"/>
    </g>
  </g>
</svg>
